<mxfile host="app.diagrams.net" modified="2021-04-15T09:10:19.451Z" agent="5.0 (Windows NT 10.0; Win64; x64) AppleWebKit/537.36 (KHTML, like Gecko) Chrome/89.0.4389.114 Safari/537.36" etag="FO-Z4hfYNbTKdvAAwjO2" version="14.6.0" type="github">
  <diagram name="Page-1" id="42789a77-a242-8287-6e28-9cd8cfd52e62">
    <mxGraphModel dx="1422" dy="762" grid="1" gridSize="10" guides="1" tooltips="1" connect="1" arrows="1" fold="1" page="1" pageScale="1" pageWidth="1100" pageHeight="850" background="#ffffff" math="0" shadow="0">
      <root>
        <mxCell id="0" />
        <mxCell id="1" parent="0" />
        <mxCell id="1ea317790d2ca983-13" value="添加入住人&amp;nbsp;" style="edgeStyle=none;rounded=1;html=1;labelBackgroundColor=none;startArrow=none;startFill=0;startSize=5;endArrow=classicThin;endFill=1;endSize=5;jettySize=auto;orthogonalLoop=1;strokeColor=#B3B3B3;strokeWidth=1;fontFamily=Verdana;fontSize=12" parent="1" source="1ea317790d2ca983-1" target="1ea317790d2ca983-9" edge="1">
          <mxGeometry relative="1" as="geometry" />
        </mxCell>
        <mxCell id="1ea317790d2ca983-14" value="" style="edgeStyle=none;rounded=1;html=1;labelBackgroundColor=none;startArrow=none;startFill=0;startSize=5;endArrow=classicThin;endFill=1;endSize=5;jettySize=auto;orthogonalLoop=1;strokeColor=#B3B3B3;strokeWidth=1;fontFamily=Verdana;fontSize=12" parent="1" source="1ea317790d2ca983-1" target="1ea317790d2ca983-3" edge="1">
          <mxGeometry relative="1" as="geometry" />
        </mxCell>
        <mxCell id="1ea317790d2ca983-1" value="响猪小程序" style="ellipse;whiteSpace=wrap;html=1;rounded=0;shadow=1;comic=0;labelBackgroundColor=none;strokeWidth=1;fontFamily=Verdana;fontSize=12;align=center;" parent="1" vertex="1">
          <mxGeometry x="450" y="80" width="90" height="60" as="geometry" />
        </mxCell>
        <mxCell id="1ea317790d2ca983-15" value="获取住客列表" style="edgeStyle=none;rounded=1;html=1;labelBackgroundColor=none;startArrow=none;startFill=0;startSize=5;endArrow=classicThin;endFill=1;endSize=5;jettySize=auto;orthogonalLoop=1;strokeColor=#B3B3B3;strokeWidth=1;fontFamily=Verdana;fontSize=12" parent="1" source="1ea317790d2ca983-3" target="1ea317790d2ca983-4" edge="1">
          <mxGeometry relative="1" as="geometry" />
        </mxCell>
        <mxCell id="1ea317790d2ca983-3" value="&lt;span&gt;办理入住&lt;/span&gt;" style="ellipse;whiteSpace=wrap;html=1;rounded=0;shadow=1;comic=0;labelBackgroundColor=none;strokeWidth=1;fontFamily=Verdana;fontSize=12;align=center;" parent="1" vertex="1">
          <mxGeometry x="700" y="190" width="75" height="50" as="geometry" />
        </mxCell>
        <mxCell id="yDMDq4RHHHaFF2rKGilQ-22" value="住客列表为空&lt;br&gt;自动进入天添加入住人页面" style="edgeStyle=orthogonalEdgeStyle;rounded=0;orthogonalLoop=1;jettySize=auto;html=1;entryX=1;entryY=0.5;entryDx=0;entryDy=0;" edge="1" parent="1" source="1ea317790d2ca983-4" target="1ea317790d2ca983-9">
          <mxGeometry x="0.0734" y="-17" relative="1" as="geometry">
            <mxPoint x="595" y="345" as="targetPoint" />
            <mxPoint x="1" y="1" as="offset" />
          </mxGeometry>
        </mxCell>
        <mxCell id="yDMDq4RHHHaFF2rKGilQ-28" value="" style="edgeStyle=orthogonalEdgeStyle;rounded=0;orthogonalLoop=1;jettySize=auto;html=1;" edge="1" parent="1" source="1ea317790d2ca983-4" target="yDMDq4RHHHaFF2rKGilQ-27">
          <mxGeometry relative="1" as="geometry" />
        </mxCell>
        <mxCell id="1ea317790d2ca983-4" value="&lt;span&gt;获取住客列表&lt;/span&gt;" style="ellipse;whiteSpace=wrap;html=1;rounded=0;shadow=1;comic=0;labelBackgroundColor=none;strokeWidth=1;fontFamily=Verdana;fontSize=12;align=center;" parent="1" vertex="1">
          <mxGeometry x="700" y="320" width="75" height="50" as="geometry" />
        </mxCell>
        <mxCell id="yDMDq4RHHHaFF2rKGilQ-24" value="" style="edgeStyle=orthogonalEdgeStyle;rounded=0;orthogonalLoop=1;jettySize=auto;html=1;" edge="1" parent="1" target="yDMDq4RHHHaFF2rKGilQ-23">
          <mxGeometry relative="1" as="geometry">
            <mxPoint x="700" y="495" as="sourcePoint" />
          </mxGeometry>
        </mxCell>
        <mxCell id="1ea317790d2ca983-19" value="用户填写完基本信息,用户点击下一步" style="edgeStyle=none;rounded=1;html=1;labelBackgroundColor=none;startArrow=none;startFill=0;startSize=5;endArrow=classicThin;endFill=1;endSize=5;jettySize=auto;orthogonalLoop=1;strokeColor=#B3B3B3;strokeWidth=1;fontFamily=Verdana;fontSize=12" parent="1" source="1ea317790d2ca983-9" target="1ea317790d2ca983-10" edge="1">
          <mxGeometry relative="1" as="geometry" />
        </mxCell>
        <mxCell id="1ea317790d2ca983-9" value="&lt;span&gt;添加入住人&amp;nbsp;&lt;/span&gt;" style="ellipse;whiteSpace=wrap;html=1;rounded=0;shadow=1;comic=0;labelBackgroundColor=none;strokeWidth=1;fontFamily=Verdana;fontSize=12;align=center;" parent="1" vertex="1">
          <mxGeometry x="210" y="190" width="75" height="50" as="geometry" />
        </mxCell>
        <mxCell id="1ea317790d2ca983-20" value="确认进入" style="edgeStyle=none;rounded=1;html=1;labelBackgroundColor=none;startArrow=none;startFill=0;startSize=5;endArrow=classicThin;endFill=1;endSize=5;jettySize=auto;orthogonalLoop=1;strokeColor=#B3B3B3;strokeWidth=1;fontFamily=Verdana;fontSize=12" parent="1" source="1ea317790d2ca983-10" target="1ea317790d2ca983-11" edge="1">
          <mxGeometry relative="1" as="geometry" />
        </mxCell>
        <mxCell id="yDMDq4RHHHaFF2rKGilQ-2" value="用户取消" style="edgeStyle=orthogonalEdgeStyle;rounded=0;orthogonalLoop=1;jettySize=auto;html=1;" edge="1" parent="1" source="1ea317790d2ca983-10" target="yDMDq4RHHHaFF2rKGilQ-1">
          <mxGeometry relative="1" as="geometry" />
        </mxCell>
        <mxCell id="1ea317790d2ca983-10" value="弹出是否进入智享云宿" style="ellipse;whiteSpace=wrap;html=1;rounded=0;shadow=1;comic=0;labelBackgroundColor=none;strokeWidth=1;fontFamily=Verdana;fontSize=12;align=center;" parent="1" vertex="1">
          <mxGeometry x="210" y="320" width="75" height="50" as="geometry" />
        </mxCell>
        <mxCell id="yDMDq4RHHHaFF2rKGilQ-6" value="" style="edgeStyle=orthogonalEdgeStyle;rounded=0;orthogonalLoop=1;jettySize=auto;html=1;" edge="1" parent="1" source="1ea317790d2ca983-11" target="yDMDq4RHHHaFF2rKGilQ-5">
          <mxGeometry relative="1" as="geometry" />
        </mxCell>
        <mxCell id="1ea317790d2ca983-11" value="进入智享云宿人脸识别页面" style="ellipse;whiteSpace=wrap;html=1;rounded=0;shadow=1;comic=0;labelBackgroundColor=none;strokeWidth=1;fontFamily=Verdana;fontSize=12;align=center;" parent="1" vertex="1">
          <mxGeometry x="210" y="470" width="75" height="50" as="geometry" />
        </mxCell>
        <mxCell id="yDMDq4RHHHaFF2rKGilQ-4" value="用户确认进入" style="edgeStyle=orthogonalEdgeStyle;rounded=0;orthogonalLoop=1;jettySize=auto;html=1;" edge="1" parent="1" source="yDMDq4RHHHaFF2rKGilQ-1" target="1ea317790d2ca983-11">
          <mxGeometry relative="1" as="geometry">
            <mxPoint x="92.5" y="450" as="targetPoint" />
            <Array as="points">
              <mxPoint x="80" y="495" />
            </Array>
          </mxGeometry>
        </mxCell>
        <mxCell id="yDMDq4RHHHaFF2rKGilQ-20" value="" style="edgeStyle=orthogonalEdgeStyle;rounded=0;orthogonalLoop=1;jettySize=auto;html=1;" edge="1" parent="1" source="yDMDq4RHHHaFF2rKGilQ-1" target="yDMDq4RHHHaFF2rKGilQ-18">
          <mxGeometry relative="1" as="geometry" />
        </mxCell>
        <mxCell id="yDMDq4RHHHaFF2rKGilQ-1" value="提示添加入住人必须进行人证比对" style="ellipse;whiteSpace=wrap;html=1;rounded=0;shadow=1;comic=0;labelBackgroundColor=none;strokeWidth=1;fontFamily=Verdana;fontSize=12;align=center;" vertex="1" parent="1">
          <mxGeometry x="55" y="320" width="75" height="50" as="geometry" />
        </mxCell>
        <mxCell id="yDMDq4RHHHaFF2rKGilQ-8" value="" style="edgeStyle=orthogonalEdgeStyle;rounded=0;orthogonalLoop=1;jettySize=auto;html=1;" edge="1" parent="1" source="yDMDq4RHHHaFF2rKGilQ-5" target="yDMDq4RHHHaFF2rKGilQ-7">
          <mxGeometry relative="1" as="geometry" />
        </mxCell>
        <mxCell id="yDMDq4RHHHaFF2rKGilQ-10" value="" style="edgeStyle=orthogonalEdgeStyle;rounded=0;orthogonalLoop=1;jettySize=auto;html=1;" edge="1" parent="1" source="yDMDq4RHHHaFF2rKGilQ-5" target="yDMDq4RHHHaFF2rKGilQ-9">
          <mxGeometry relative="1" as="geometry" />
        </mxCell>
        <mxCell id="yDMDq4RHHHaFF2rKGilQ-5" value="比对结果" style="ellipse;whiteSpace=wrap;html=1;rounded=0;shadow=1;comic=0;labelBackgroundColor=none;strokeWidth=1;fontFamily=Verdana;fontSize=12;align=center;" vertex="1" parent="1">
          <mxGeometry x="210" y="600" width="75" height="50" as="geometry" />
        </mxCell>
        <mxCell id="yDMDq4RHHHaFF2rKGilQ-7" value="失败" style="ellipse;whiteSpace=wrap;html=1;rounded=0;shadow=1;comic=0;labelBackgroundColor=none;strokeWidth=1;fontFamily=Verdana;fontSize=12;align=center;" vertex="1" parent="1">
          <mxGeometry x="55" y="600" width="75" height="50" as="geometry" />
        </mxCell>
        <mxCell id="yDMDq4RHHHaFF2rKGilQ-12" value="" style="edgeStyle=orthogonalEdgeStyle;rounded=0;orthogonalLoop=1;jettySize=auto;html=1;" edge="1" parent="1" source="yDMDq4RHHHaFF2rKGilQ-9" target="yDMDq4RHHHaFF2rKGilQ-11">
          <mxGeometry relative="1" as="geometry" />
        </mxCell>
        <mxCell id="yDMDq4RHHHaFF2rKGilQ-9" value="成功" style="ellipse;whiteSpace=wrap;html=1;rounded=0;shadow=1;comic=0;labelBackgroundColor=none;strokeWidth=1;fontFamily=Verdana;fontSize=12;align=center;" vertex="1" parent="1">
          <mxGeometry x="210" y="730" width="75" height="50" as="geometry" />
        </mxCell>
        <mxCell id="yDMDq4RHHHaFF2rKGilQ-14" value="成功" style="edgeStyle=orthogonalEdgeStyle;rounded=0;orthogonalLoop=1;jettySize=auto;html=1;" edge="1" parent="1" source="yDMDq4RHHHaFF2rKGilQ-11" target="yDMDq4RHHHaFF2rKGilQ-13">
          <mxGeometry relative="1" as="geometry" />
        </mxCell>
        <mxCell id="yDMDq4RHHHaFF2rKGilQ-16" value="失败" style="edgeStyle=orthogonalEdgeStyle;rounded=0;orthogonalLoop=1;jettySize=auto;html=1;" edge="1" parent="1" source="yDMDq4RHHHaFF2rKGilQ-11" target="yDMDq4RHHHaFF2rKGilQ-15">
          <mxGeometry relative="1" as="geometry" />
        </mxCell>
        <mxCell id="yDMDq4RHHHaFF2rKGilQ-11" value="调用后台&lt;br&gt;保存(编辑)接口" style="ellipse;whiteSpace=wrap;html=1;rounded=0;shadow=1;comic=0;labelBackgroundColor=none;strokeWidth=1;fontFamily=Verdana;fontSize=12;align=center;" vertex="1" parent="1">
          <mxGeometry x="365" y="730" width="75" height="50" as="geometry" />
        </mxCell>
        <mxCell id="yDMDq4RHHHaFF2rKGilQ-36" value="" style="edgeStyle=orthogonalEdgeStyle;rounded=0;orthogonalLoop=1;jettySize=auto;html=1;" edge="1" parent="1" source="yDMDq4RHHHaFF2rKGilQ-13" target="yDMDq4RHHHaFF2rKGilQ-35">
          <mxGeometry relative="1" as="geometry" />
        </mxCell>
        <mxCell id="yDMDq4RHHHaFF2rKGilQ-39" value="" style="edgeStyle=orthogonalEdgeStyle;rounded=0;orthogonalLoop=1;jettySize=auto;html=1;" edge="1" parent="1" source="yDMDq4RHHHaFF2rKGilQ-13" target="yDMDq4RHHHaFF2rKGilQ-38">
          <mxGeometry relative="1" as="geometry" />
        </mxCell>
        <mxCell id="yDMDq4RHHHaFF2rKGilQ-13" value="回响猪,判断来源类型,告诉返回的页面如何进行操作" style="ellipse;whiteSpace=wrap;html=1;rounded=0;shadow=1;comic=0;labelBackgroundColor=none;strokeWidth=1;fontFamily=Verdana;fontSize=12;align=center;" vertex="1" parent="1">
          <mxGeometry x="520" y="730" width="390" height="50" as="geometry" />
        </mxCell>
        <mxCell id="yDMDq4RHHHaFF2rKGilQ-15" value="提示失败" style="ellipse;whiteSpace=wrap;html=1;rounded=0;shadow=1;comic=0;labelBackgroundColor=none;strokeWidth=1;fontFamily=Verdana;fontSize=12;align=center;" vertex="1" parent="1">
          <mxGeometry x="365" y="600" width="75" height="50" as="geometry" />
        </mxCell>
        <mxCell id="yDMDq4RHHHaFF2rKGilQ-18" value="取消" style="ellipse;whiteSpace=wrap;html=1;" vertex="1" parent="1">
          <mxGeometry x="52.5" y="150" width="80" height="60" as="geometry" />
        </mxCell>
        <mxCell id="yDMDq4RHHHaFF2rKGilQ-25" style="edgeStyle=orthogonalEdgeStyle;rounded=0;orthogonalLoop=1;jettySize=auto;html=1;" edge="1" parent="1" source="yDMDq4RHHHaFF2rKGilQ-23">
          <mxGeometry relative="1" as="geometry">
            <mxPoint x="350" y="220" as="targetPoint" />
          </mxGeometry>
        </mxCell>
        <mxCell id="yDMDq4RHHHaFF2rKGilQ-26" style="edgeStyle=orthogonalEdgeStyle;rounded=0;orthogonalLoop=1;jettySize=auto;html=1;" edge="1" parent="1" source="yDMDq4RHHHaFF2rKGilQ-23">
          <mxGeometry relative="1" as="geometry">
            <mxPoint x="740" y="380" as="targetPoint" />
          </mxGeometry>
        </mxCell>
        <mxCell id="yDMDq4RHHHaFF2rKGilQ-23" value="用户选择添加住客信息" style="ellipse;whiteSpace=wrap;html=1;rounded=0;shadow=1;comic=0;labelBackgroundColor=none;strokeWidth=1;fontFamily=Verdana;fontSize=12;align=center;" vertex="1" parent="1">
          <mxGeometry x="545" y="470" width="75" height="50" as="geometry" />
        </mxCell>
        <mxCell id="yDMDq4RHHHaFF2rKGilQ-30" value="" style="edgeStyle=orthogonalEdgeStyle;rounded=0;orthogonalLoop=1;jettySize=auto;html=1;" edge="1" parent="1" source="yDMDq4RHHHaFF2rKGilQ-27" target="yDMDq4RHHHaFF2rKGilQ-29">
          <mxGeometry relative="1" as="geometry" />
        </mxCell>
        <mxCell id="yDMDq4RHHHaFF2rKGilQ-27" value="用户选择已有&lt;br&gt;住客" style="ellipse;whiteSpace=wrap;html=1;rounded=0;shadow=1;comic=0;labelBackgroundColor=none;strokeWidth=1;fontFamily=Verdana;fontSize=12;align=center;" vertex="1" parent="1">
          <mxGeometry x="855" y="320" width="75" height="50" as="geometry" />
        </mxCell>
        <mxCell id="yDMDq4RHHHaFF2rKGilQ-32" value="否" style="edgeStyle=orthogonalEdgeStyle;rounded=0;orthogonalLoop=1;jettySize=auto;html=1;entryX=1;entryY=0.5;entryDx=0;entryDy=0;" edge="1" parent="1" source="yDMDq4RHHHaFF2rKGilQ-29" target="1ea317790d2ca983-10">
          <mxGeometry relative="1" as="geometry">
            <mxPoint x="775" y="535" as="targetPoint" />
            <Array as="points">
              <mxPoint x="320" y="535" />
              <mxPoint x="320" y="345" />
            </Array>
          </mxGeometry>
        </mxCell>
        <mxCell id="yDMDq4RHHHaFF2rKGilQ-34" value="存在" style="edgeStyle=orthogonalEdgeStyle;rounded=0;orthogonalLoop=1;jettySize=auto;html=1;" edge="1" parent="1" source="yDMDq4RHHHaFF2rKGilQ-29" target="yDMDq4RHHHaFF2rKGilQ-33">
          <mxGeometry relative="1" as="geometry" />
        </mxCell>
        <mxCell id="yDMDq4RHHHaFF2rKGilQ-29" value="判断是否存在&lt;br&gt;人脸特征值" style="ellipse;whiteSpace=wrap;html=1;rounded=0;shadow=1;comic=0;labelBackgroundColor=none;strokeWidth=1;fontFamily=Verdana;fontSize=12;align=center;" vertex="1" parent="1">
          <mxGeometry x="855" y="510" width="75" height="50" as="geometry" />
        </mxCell>
        <mxCell id="yDMDq4RHHHaFF2rKGilQ-33" value="调用保存&lt;br&gt;办理入住接口" style="ellipse;whiteSpace=wrap;html=1;rounded=0;shadow=1;comic=0;labelBackgroundColor=none;strokeWidth=1;fontFamily=Verdana;fontSize=12;align=center;" vertex="1" parent="1">
          <mxGeometry x="855" y="640" width="75" height="50" as="geometry" />
        </mxCell>
        <mxCell id="yDMDq4RHHHaFF2rKGilQ-37" style="edgeStyle=orthogonalEdgeStyle;rounded=0;orthogonalLoop=1;jettySize=auto;html=1;" edge="1" parent="1" source="yDMDq4RHHHaFF2rKGilQ-35" target="yDMDq4RHHHaFF2rKGilQ-33">
          <mxGeometry relative="1" as="geometry" />
        </mxCell>
        <mxCell id="yDMDq4RHHHaFF2rKGilQ-35" value="回到办理入住&lt;br&gt;首页页面,&lt;br&gt;刷新数据" style="ellipse;whiteSpace=wrap;html=1;rounded=0;shadow=1;comic=0;labelBackgroundColor=none;strokeWidth=1;fontFamily=Verdana;fontSize=12;align=center;" vertex="1" parent="1">
          <mxGeometry x="625" y="920" width="180" height="40" as="geometry" />
        </mxCell>
        <mxCell id="yDMDq4RHHHaFF2rKGilQ-38" value="回到添加入住人页面.&lt;br&gt;提示添加(编辑)成功" style="ellipse;whiteSpace=wrap;html=1;rounded=0;shadow=1;comic=0;labelBackgroundColor=none;strokeWidth=1;fontFamily=Verdana;fontSize=12;align=center;" vertex="1" parent="1">
          <mxGeometry x="1080" y="710" width="160" height="90" as="geometry" />
        </mxCell>
      </root>
    </mxGraphModel>
  </diagram>
</mxfile>
